<?xml version="1.0" encoding="UTF-8"?>
<svg xmlns="http://www.w3.org/2000/svg" xmlns:xlink="http://www.w3.org/1999/xlink" width="24px" height="30px" viewBox="0 0 24 29" version="1.1">
<g id="surface1">
<path style=" stroke:none;fill-rule:nonzero;fill:rgb(10.588235%,10.588235%,10.588235%);fill-opacity:1;" d="M 0 6.644531 C 0 5.777344 0.78125 5.070312 1.75 5.070312 L 22.75 5.070312 C 23.71875 5.070312 24.5 5.777344 24.5 6.644531 C 24.5 7.507812 23.71875 8.21875 22.75 8.21875 L 1.75 8.21875 C 0.78125 8.21875 0 7.507812 0 6.644531 Z M 0 14.5 C 0 13.632812 0.78125 12.929688 1.75 12.929688 L 22.75 12.929688 C 23.71875 12.929688 24.5 13.632812 24.5 14.5 C 24.5 15.367188 23.71875 16.070312 22.75 16.070312 L 1.75 16.070312 C 0.78125 16.070312 0 15.367188 0 14.5 Z M 24.5 22.355469 C 24.5 23.222656 23.71875 23.929688 22.75 23.929688 L 1.75 23.929688 C 0.78125 23.929688 0 23.222656 0 22.355469 C 0 21.492188 0.78125 20.78125 1.75 20.78125 L 22.75 20.78125 C 23.71875 20.78125 24.5 21.492188 24.5 22.355469 Z M 24.5 22.355469 "/>
</g>
</svg>
