<?xml version="1.0" encoding="UTF-8"?>
<svg xmlns="http://www.w3.org/2000/svg" xmlns:xlink="http://www.w3.org/1999/xlink" width="16px" height="14px" viewBox="0 0 16 14" version="1.1">
<g id="surface1">
<path style=" stroke:none;fill-rule:nonzero;fill:rgb(10.588235%,10.588235%,10.588235%);fill-opacity:1;" d="M 5.75 1.3125 L 10.25 1.3125 C 10.386719 1.3125 10.5 1.410156 10.5 1.53125 L 10.5 2.625 L 5.5 2.625 L 5.5 1.53125 C 5.5 1.410156 5.613281 1.3125 5.75 1.3125 Z M 4 1.53125 L 4 2.625 L 2 2.625 C 0.898438 2.625 0 3.410156 0 4.375 L 0 7 L 16 7 L 16 4.375 C 16 3.410156 15.101562 2.625 14 2.625 L 12 2.625 L 12 1.53125 C 12 0.6875 11.214844 0 10.25 0 L 5.75 0 C 4.785156 0 4 0.6875 4 1.53125 Z M 16 7.875 L 10 7.875 L 10 8.75 C 10 9.234375 9.554688 9.625 9 9.625 L 7 9.625 C 6.445312 9.625 6 9.234375 6 8.75 L 6 7.875 L 0 7.875 L 0 11.375 C 0 12.339844 0.898438 13.125 2 13.125 L 14 13.125 C 15.101562 13.125 16 12.339844 16 11.375 Z M 16 7.875 "/>
</g>
</svg>
