<?xml version="1.0" encoding="UTF-8"?>
<svg xmlns="http://www.w3.org/2000/svg" xmlns:xlink="http://www.w3.org/1999/xlink" width="14px" height="14px" viewBox="0 0 14 14" version="1.1">
<g id="surface1">
<path style=" stroke:none;fill-rule:nonzero;fill:rgb(100%,76.078433%,13.333334%);fill-opacity:1;" d="M 1.75 3.0625 C 1.507812 3.0625 1.3125 3.261719 1.3125 3.5 L 1.3125 4.105469 L 6.03125 7.976562 C 6.59375 8.4375 7.40625 8.4375 7.972656 7.976562 L 12.6875 4.105469 L 12.6875 3.5 C 12.6875 3.261719 12.492188 3.0625 12.25 3.0625 Z M 1.3125 5.800781 L 1.3125 10.5 C 1.3125 10.738281 1.507812 10.9375 1.75 10.9375 L 12.25 10.9375 C 12.492188 10.9375 12.6875 10.738281 12.6875 10.5 L 12.6875 5.800781 L 8.804688 8.988281 C 7.753906 9.851562 6.242188 9.851562 5.195312 8.988281 Z M 0 3.5 C 0 2.53125 0.785156 1.75 1.75 1.75 L 12.25 1.75 C 13.214844 1.75 14 2.53125 14 3.5 L 14 10.5 C 14 11.46875 13.214844 12.25 12.25 12.25 L 1.75 12.25 C 0.785156 12.25 0 11.46875 0 10.5 Z M 0 3.5 "/>
</g>
</svg>
