<?xml version="1.0" encoding="UTF-8"?>
<svg xmlns="http://www.w3.org/2000/svg" xmlns:xlink="http://www.w3.org/1999/xlink" width="10px" height="14px" viewBox="0 0 10 14" version="1.1">
<g id="surface1">
<path style=" stroke:none;fill-rule:nonzero;fill:rgb(100%,76.078433%,13.333334%);fill-opacity:1;" d="M 5.265625 13.648438 C 6.519531 11.894531 9.375 7.640625 9.375 5.25 C 9.375 2.351562 7.273438 0 4.6875 0 C 2.101562 0 0 2.351562 0 5.25 C 0 7.640625 2.855469 11.894531 4.109375 13.648438 C 4.410156 14.070312 4.964844 14.070312 5.265625 13.648438 Z M 4.6875 3.5 C 5.550781 3.5 6.25 4.285156 6.25 5.25 C 6.25 6.214844 5.550781 7 4.6875 7 C 3.824219 7 3.125 6.214844 3.125 5.25 C 3.125 4.285156 3.824219 3.5 4.6875 3.5 Z M 4.6875 3.5 "/>
</g>
</svg>
