<?xml version="1.0" encoding="UTF-8"?>
<svg xmlns="http://www.w3.org/2000/svg" xmlns:xlink="http://www.w3.org/1999/xlink" width="11px" height="11px" viewBox="0 0 11 11" version="1.1">
<g id="surface1">
<path style=" stroke:none;fill-rule:nonzero;fill:rgb(100%,76.078433%,13.333334%);fill-opacity:1;" d="M 3.542969 0.527344 C 3.378906 0.128906 2.941406 -0.0820312 2.523438 0.03125 L 0.632812 0.546875 C 0.261719 0.648438 0 0.988281 0 1.375 C 0 6.691406 4.308594 11 9.625 11 C 10.011719 11 10.351562 10.738281 10.453125 10.367188 L 10.96875 8.476562 C 11.082031 8.058594 10.871094 7.621094 10.472656 7.457031 L 8.410156 6.597656 C 8.058594 6.453125 7.652344 6.554688 7.414062 6.847656 L 6.546875 7.90625 C 5.035156 7.191406 3.808594 5.964844 3.09375 4.453125 L 4.152344 3.585938 C 4.445312 3.347656 4.546875 2.945312 4.402344 2.59375 L 3.542969 0.53125 Z M 3.542969 0.527344 "/>
</g>
</svg>
