<?xml version="1.0" encoding="UTF-8"?>
<svg xmlns="http://www.w3.org/2000/svg" xmlns:xlink="http://www.w3.org/1999/xlink" width="15px" height="15px" viewBox="0 0 15 15" version="1.1">
<g id="surface1">
<path style=" stroke:none;fill-rule:nonzero;fill:rgb(100%,100%,100%);fill-opacity:1;" d="M 14.316406 8.671875 C 14.316406 10.613281 12.601562 12.1875 10.484375 12.1875 L 10.226562 12.1875 C 9.660156 12.1875 9.203125 11.769531 9.203125 11.25 C 9.203125 10.730469 9.660156 10.3125 10.226562 10.3125 L 10.484375 10.3125 C 11.46875 10.3125 12.273438 9.578125 12.273438 8.671875 L 12.273438 8.4375 L 10.226562 8.4375 C 9.097656 8.4375 8.183594 7.59375 8.183594 6.5625 L 8.183594 4.6875 C 8.183594 3.65625 9.097656 2.8125 10.226562 2.8125 L 12.273438 2.8125 C 13.402344 2.8125 14.316406 3.65625 14.316406 4.6875 Z M 6.136719 8.671875 C 6.136719 10.613281 4.421875 12.1875 2.300781 12.1875 L 2.046875 12.1875 C 1.480469 12.1875 1.023438 11.769531 1.023438 11.25 C 1.023438 10.730469 1.480469 10.3125 2.046875 10.3125 L 2.300781 10.3125 C 3.289062 10.3125 4.089844 9.578125 4.089844 8.671875 L 4.089844 8.4375 L 2.046875 8.4375 C 0.917969 8.4375 0 7.59375 0 6.5625 L 0 4.6875 C 0 3.65625 0.917969 2.8125 2.046875 2.8125 L 4.089844 2.8125 C 5.21875 2.8125 6.136719 3.65625 6.136719 4.6875 Z M 6.136719 8.671875 "/>
</g>
</svg>
